<?xml version="1.0" encoding="UTF-8" standalone="no"?>
<svg width="113.639mm" height="77.126mm"
 viewBox="0 0 2577 1749"
 xmlns="http://www.w3.org/2000/svg" xmlns:xlink="http://www.w3.org/1999/xlink"  version="1.2" baseProfile="tiny">
<title>Qt SVG Document</title>
<desc>Generated with Qt</desc>
<defs>
</defs>
<g fill="none" stroke="black" stroke-width="1" fill-rule="evenodd" stroke-linecap="square" stroke-linejoin="bevel" >

<g fill="#ffffff" fill-opacity="1" stroke="#000000" stroke-opacity="1" stroke-width="1" stroke-linecap="butt" stroke-linejoin="miter" stroke-miterlimit="4.97494" transform="matrix(1,0,0,1,0,0)"
font-family=".SF NS Text" font-size="104" font-weight="400" font-style="normal" 
>
</g>

<g fill="#ffffff" fill-opacity="1" stroke="#0000ff" stroke-opacity="1" stroke-width="1" stroke-linecap="butt" stroke-linejoin="miter" stroke-miterlimit="4.97494" transform="matrix(1,0,0,1,0,0)"
font-family=".SF NS Text" font-size="104" font-weight="400" font-style="normal" 
>
</g>

<g fill="#ffffff" fill-opacity="1" stroke="#0000ff" stroke-opacity="1" stroke-width="8" stroke-linecap="butt" stroke-linejoin="miter" stroke-miterlimit="4.97494" transform="matrix(1,0,0,1,0,0)"
font-family=".SF NS Text" font-size="104" font-weight="400" font-style="normal" 
>
<polyline fill="none" vector-effect="none" points="388,92 388,1485 " />
</g>

<g fill="#ffffff" fill-opacity="1" stroke="#0000ff" stroke-opacity="1" stroke-width="1" stroke-linecap="butt" stroke-linejoin="miter" stroke-miterlimit="4.97494" transform="matrix(1,0,0,1,0,0)"
font-family=".SF NS Text" font-size="104" font-weight="400" font-style="normal" 
>
</g>

<g fill="#ffffff" fill-opacity="1" stroke="#0000ff" stroke-opacity="1" stroke-width="8" stroke-linecap="butt" stroke-linejoin="miter" stroke-miterlimit="4.97494" transform="matrix(1,0,0,1,0,0)"
font-family=".SF NS Text" font-size="104" font-weight="400" font-style="normal" 
>
<polyline fill="none" vector-effect="none" points="384,427 416,427 " />
</g>

<g fill="#ffffff" fill-opacity="1" stroke="#0000ff" stroke-opacity="1" stroke-width="1" stroke-linecap="butt" stroke-linejoin="miter" stroke-miterlimit="4.97494" transform="matrix(1,0,0,1,0,0)"
font-family=".SF NS Text" font-size="104" font-weight="400" font-style="normal" 
>
</g>

<g fill="#ffffff" fill-opacity="1" stroke="#0000ff" stroke-opacity="1" stroke-width="1" stroke-linecap="butt" stroke-linejoin="miter" stroke-miterlimit="4.97494" transform="matrix(1,0,0,1,185,373)"
font-family="Arial" font-size="96" font-weight="700" font-style="normal" 
>
<text fill="#0000ff" fill-opacity="1" stroke="none" xml:space="preserve" x="0" y="86" font-family="Arial" font-size="96" font-weight="700" font-style="normal" 
 >0.20</text>
</g>

<g fill="#ffffff" fill-opacity="1" stroke="#0000ff" stroke-opacity="1" stroke-width="1" stroke-linecap="butt" stroke-linejoin="miter" stroke-miterlimit="4.97494" transform="matrix(1,0,0,1,0,0)"
font-family=".SF NS Text" font-size="104" font-weight="400" font-style="normal" 
>
</g>

<g fill="#ffffff" fill-opacity="1" stroke="#0000ff" stroke-opacity="1" stroke-width="8" stroke-linecap="butt" stroke-linejoin="miter" stroke-miterlimit="4.97494" transform="matrix(1,0,0,1,0,0)"
font-family=".SF NS Text" font-size="104" font-weight="400" font-style="normal" 
>
<polyline fill="none" vector-effect="none" points="384,785 416,785 " />
</g>

<g fill="#ffffff" fill-opacity="1" stroke="#0000ff" stroke-opacity="1" stroke-width="1" stroke-linecap="butt" stroke-linejoin="miter" stroke-miterlimit="4.97494" transform="matrix(1,0,0,1,0,0)"
font-family=".SF NS Text" font-size="104" font-weight="400" font-style="normal" 
>
</g>

<g fill="#ffffff" fill-opacity="1" stroke="#0000ff" stroke-opacity="1" stroke-width="1" stroke-linecap="butt" stroke-linejoin="miter" stroke-miterlimit="4.97494" transform="matrix(1,0,0,1,185,731)"
font-family="Arial" font-size="96" font-weight="700" font-style="normal" 
>
<text fill="#0000ff" fill-opacity="1" stroke="none" xml:space="preserve" x="0" y="86" font-family="Arial" font-size="96" font-weight="700" font-style="normal" 
 >0.15</text>
</g>

<g fill="#ffffff" fill-opacity="1" stroke="#0000ff" stroke-opacity="1" stroke-width="1" stroke-linecap="butt" stroke-linejoin="miter" stroke-miterlimit="4.97494" transform="matrix(1,0,0,1,0,0)"
font-family=".SF NS Text" font-size="104" font-weight="400" font-style="normal" 
>
</g>

<g fill="#ffffff" fill-opacity="1" stroke="#0000ff" stroke-opacity="1" stroke-width="8" stroke-linecap="butt" stroke-linejoin="miter" stroke-miterlimit="4.97494" transform="matrix(1,0,0,1,0,0)"
font-family=".SF NS Text" font-size="104" font-weight="400" font-style="normal" 
>
<polyline fill="none" vector-effect="none" points="384,1143 416,1143 " />
</g>

<g fill="#ffffff" fill-opacity="1" stroke="#0000ff" stroke-opacity="1" stroke-width="1" stroke-linecap="butt" stroke-linejoin="miter" stroke-miterlimit="4.97494" transform="matrix(1,0,0,1,0,0)"
font-family=".SF NS Text" font-size="104" font-weight="400" font-style="normal" 
>
</g>

<g fill="#ffffff" fill-opacity="1" stroke="#0000ff" stroke-opacity="1" stroke-width="1" stroke-linecap="butt" stroke-linejoin="miter" stroke-miterlimit="4.97494" transform="matrix(1,0,0,1,185,1089)"
font-family="Arial" font-size="96" font-weight="700" font-style="normal" 
>
<text fill="#0000ff" fill-opacity="1" stroke="none" xml:space="preserve" x="0" y="86" font-family="Arial" font-size="96" font-weight="700" font-style="normal" 
 >0.10</text>
</g>

<g fill="#ffffff" fill-opacity="1" stroke="#0000ff" stroke-opacity="1" stroke-width="1" stroke-linecap="butt" stroke-linejoin="miter" stroke-miterlimit="4.97494" transform="matrix(1,0,0,1,0,0)"
font-family=".SF NS Text" font-size="104" font-weight="400" font-style="normal" 
>
</g>

<g fill="#ffffff" fill-opacity="1" stroke="#0000ff" stroke-opacity="1" stroke-width="1" stroke-linecap="butt" stroke-linejoin="miter" stroke-miterlimit="4.97494" transform="matrix(6.12323e-17,-1,1,6.12323e-17,-1.69614e-14,1065)"
font-family="Arial" font-size="96" font-weight="700" font-style="normal" 
>
<text fill="#0000ff" fill-opacity="1" stroke="none" xml:space="preserve" x="0" y="86" font-family="Arial" font-size="96" font-weight="700" font-style="normal" 
 >potential [V]</text>
</g>

<g fill="#ffffff" fill-opacity="1" stroke="#0000ff" stroke-opacity="1" stroke-width="1" stroke-linecap="butt" stroke-linejoin="miter" stroke-miterlimit="4.97494" transform="matrix(1,0,0,1,0,0)"
font-family=".SF NS Text" font-size="104" font-weight="400" font-style="normal" 
>
</g>

<g fill="#ffffff" fill-opacity="1" stroke="#000000" stroke-opacity="1" stroke-width="1" stroke-linecap="butt" stroke-linejoin="miter" stroke-miterlimit="4.97494" transform="matrix(1,0,0,1,0,0)"
font-family=".SF NS Text" font-size="104" font-weight="400" font-style="normal" 
>
</g>

<g fill="#ffffff" fill-opacity="1" stroke="#000000" stroke-opacity="1" stroke-width="8" stroke-linecap="butt" stroke-linejoin="miter" stroke-miterlimit="4.97494" transform="matrix(1,0,0,1,0,0)"
font-family=".SF NS Text" font-size="104" font-weight="400" font-style="normal" 
>
<polyline fill="none" vector-effect="none" points="384,1489 2246,1489 " />
</g>

<g fill="#ffffff" fill-opacity="1" stroke="#000000" stroke-opacity="1" stroke-width="1" stroke-linecap="butt" stroke-linejoin="miter" stroke-miterlimit="4.97494" transform="matrix(1,0,0,1,0,0)"
font-family=".SF NS Text" font-size="104" font-weight="400" font-style="normal" 
>
</g>

<g fill="#ffffff" fill-opacity="1" stroke="#000000" stroke-opacity="1" stroke-width="8" stroke-linecap="butt" stroke-linejoin="miter" stroke-miterlimit="4.97494" transform="matrix(1,0,0,1,0,0)"
font-family=".SF NS Text" font-size="104" font-weight="400" font-style="normal" 
>
<polyline fill="none" vector-effect="none" points="384,88 2246,88 " />
</g>

<g fill="#ffffff" fill-opacity="1" stroke="#000000" stroke-opacity="1" stroke-width="1" stroke-linecap="butt" stroke-linejoin="miter" stroke-miterlimit="4.97494" transform="matrix(1,0,0,1,0,0)"
font-family=".SF NS Text" font-size="104" font-weight="400" font-style="normal" 
>
</g>

<g fill="#ffffff" fill-opacity="1" stroke="#000000" stroke-opacity="1" stroke-width="8" stroke-linecap="butt" stroke-linejoin="miter" stroke-miterlimit="4.97494" transform="matrix(1,0,0,1,0,0)"
font-family=".SF NS Text" font-size="104" font-weight="400" font-style="normal" 
>
<polyline fill="none" vector-effect="none" points="2222,84 2222,116 " />
</g>

<g fill="#ffffff" fill-opacity="1" stroke="#000000" stroke-opacity="1" stroke-width="1" stroke-linecap="butt" stroke-linejoin="miter" stroke-miterlimit="4.97494" transform="matrix(1,0,0,1,0,0)"
font-family=".SF NS Text" font-size="104" font-weight="400" font-style="normal" 
>
</g>

<g fill="#ffffff" fill-opacity="1" stroke="#000000" stroke-opacity="1" stroke-width="8" stroke-linecap="butt" stroke-linejoin="miter" stroke-miterlimit="4.97494" transform="matrix(1,0,0,1,0,0)"
font-family=".SF NS Text" font-size="104" font-weight="400" font-style="normal" 
>
<polyline fill="none" vector-effect="none" points="2222,1493 2222,1461 " />
</g>

<g fill="#ffffff" fill-opacity="1" stroke="#000000" stroke-opacity="1" stroke-width="1" stroke-linecap="butt" stroke-linejoin="miter" stroke-miterlimit="4.97494" transform="matrix(1,0,0,1,0,0)"
font-family=".SF NS Text" font-size="104" font-weight="400" font-style="normal" 
>
</g>

<g fill="#ffffff" fill-opacity="1" stroke="#000000" stroke-opacity="1" stroke-width="1" stroke-linecap="butt" stroke-linejoin="miter" stroke-miterlimit="4.97494" transform="matrix(1,0,0,1,2156,1509)"
font-family="Arial" font-size="96" font-weight="700" font-style="normal" 
>
<text fill="#000000" fill-opacity="1" stroke="none" xml:space="preserve" x="0" y="86" font-family="Arial" font-size="96" font-weight="700" font-style="normal" 
 >1.0</text>
</g>

<g fill="#ffffff" fill-opacity="1" stroke="#000000" stroke-opacity="1" stroke-width="1" stroke-linecap="butt" stroke-linejoin="miter" stroke-miterlimit="4.97494" transform="matrix(1,0,0,1,0,0)"
font-family=".SF NS Text" font-size="104" font-weight="400" font-style="normal" 
>
</g>

<g fill="#ffffff" fill-opacity="1" stroke="#000000" stroke-opacity="1" stroke-width="8" stroke-linecap="butt" stroke-linejoin="miter" stroke-miterlimit="4.97494" transform="matrix(1,0,0,1,0,0)"
font-family=".SF NS Text" font-size="104" font-weight="400" font-style="normal" 
>
<polyline fill="none" vector-effect="none" points="1859,84 1859,116 " />
</g>

<g fill="#ffffff" fill-opacity="1" stroke="#000000" stroke-opacity="1" stroke-width="1" stroke-linecap="butt" stroke-linejoin="miter" stroke-miterlimit="4.97494" transform="matrix(1,0,0,1,0,0)"
font-family=".SF NS Text" font-size="104" font-weight="400" font-style="normal" 
>
</g>

<g fill="#ffffff" fill-opacity="1" stroke="#000000" stroke-opacity="1" stroke-width="8" stroke-linecap="butt" stroke-linejoin="miter" stroke-miterlimit="4.97494" transform="matrix(1,0,0,1,0,0)"
font-family=".SF NS Text" font-size="104" font-weight="400" font-style="normal" 
>
<polyline fill="none" vector-effect="none" points="1859,1493 1859,1461 " />
</g>

<g fill="#ffffff" fill-opacity="1" stroke="#000000" stroke-opacity="1" stroke-width="1" stroke-linecap="butt" stroke-linejoin="miter" stroke-miterlimit="4.97494" transform="matrix(1,0,0,1,0,0)"
font-family=".SF NS Text" font-size="104" font-weight="400" font-style="normal" 
>
</g>

<g fill="#ffffff" fill-opacity="1" stroke="#000000" stroke-opacity="1" stroke-width="1" stroke-linecap="butt" stroke-linejoin="miter" stroke-miterlimit="4.97494" transform="matrix(1,0,0,1,1793,1509)"
font-family="Arial" font-size="96" font-weight="700" font-style="normal" 
>
<text fill="#000000" fill-opacity="1" stroke="none" xml:space="preserve" x="0" y="86" font-family="Arial" font-size="96" font-weight="700" font-style="normal" 
 >0.8</text>
</g>

<g fill="#ffffff" fill-opacity="1" stroke="#000000" stroke-opacity="1" stroke-width="1" stroke-linecap="butt" stroke-linejoin="miter" stroke-miterlimit="4.97494" transform="matrix(1,0,0,1,0,0)"
font-family=".SF NS Text" font-size="104" font-weight="400" font-style="normal" 
>
</g>

<g fill="#ffffff" fill-opacity="1" stroke="#000000" stroke-opacity="1" stroke-width="8" stroke-linecap="butt" stroke-linejoin="miter" stroke-miterlimit="4.97494" transform="matrix(1,0,0,1,0,0)"
font-family=".SF NS Text" font-size="104" font-weight="400" font-style="normal" 
>
<polyline fill="none" vector-effect="none" points="1496,84 1496,116 " />
</g>

<g fill="#ffffff" fill-opacity="1" stroke="#000000" stroke-opacity="1" stroke-width="1" stroke-linecap="butt" stroke-linejoin="miter" stroke-miterlimit="4.97494" transform="matrix(1,0,0,1,0,0)"
font-family=".SF NS Text" font-size="104" font-weight="400" font-style="normal" 
>
</g>

<g fill="#ffffff" fill-opacity="1" stroke="#000000" stroke-opacity="1" stroke-width="8" stroke-linecap="butt" stroke-linejoin="miter" stroke-miterlimit="4.97494" transform="matrix(1,0,0,1,0,0)"
font-family=".SF NS Text" font-size="104" font-weight="400" font-style="normal" 
>
<polyline fill="none" vector-effect="none" points="1496,1493 1496,1461 " />
</g>

<g fill="#ffffff" fill-opacity="1" stroke="#000000" stroke-opacity="1" stroke-width="1" stroke-linecap="butt" stroke-linejoin="miter" stroke-miterlimit="4.97494" transform="matrix(1,0,0,1,0,0)"
font-family=".SF NS Text" font-size="104" font-weight="400" font-style="normal" 
>
</g>

<g fill="#ffffff" fill-opacity="1" stroke="#000000" stroke-opacity="1" stroke-width="1" stroke-linecap="butt" stroke-linejoin="miter" stroke-miterlimit="4.97494" transform="matrix(1,0,0,1,1430,1509)"
font-family="Arial" font-size="96" font-weight="700" font-style="normal" 
>
<text fill="#000000" fill-opacity="1" stroke="none" xml:space="preserve" x="0" y="86" font-family="Arial" font-size="96" font-weight="700" font-style="normal" 
 >0.6</text>
</g>

<g fill="#ffffff" fill-opacity="1" stroke="#000000" stroke-opacity="1" stroke-width="1" stroke-linecap="butt" stroke-linejoin="miter" stroke-miterlimit="4.97494" transform="matrix(1,0,0,1,0,0)"
font-family=".SF NS Text" font-size="104" font-weight="400" font-style="normal" 
>
</g>

<g fill="#ffffff" fill-opacity="1" stroke="#000000" stroke-opacity="1" stroke-width="8" stroke-linecap="butt" stroke-linejoin="miter" stroke-miterlimit="4.97494" transform="matrix(1,0,0,1,0,0)"
font-family=".SF NS Text" font-size="104" font-weight="400" font-style="normal" 
>
<polyline fill="none" vector-effect="none" points="1134,84 1134,116 " />
</g>

<g fill="#ffffff" fill-opacity="1" stroke="#000000" stroke-opacity="1" stroke-width="1" stroke-linecap="butt" stroke-linejoin="miter" stroke-miterlimit="4.97494" transform="matrix(1,0,0,1,0,0)"
font-family=".SF NS Text" font-size="104" font-weight="400" font-style="normal" 
>
</g>

<g fill="#ffffff" fill-opacity="1" stroke="#000000" stroke-opacity="1" stroke-width="8" stroke-linecap="butt" stroke-linejoin="miter" stroke-miterlimit="4.97494" transform="matrix(1,0,0,1,0,0)"
font-family=".SF NS Text" font-size="104" font-weight="400" font-style="normal" 
>
<polyline fill="none" vector-effect="none" points="1134,1493 1134,1461 " />
</g>

<g fill="#ffffff" fill-opacity="1" stroke="#000000" stroke-opacity="1" stroke-width="1" stroke-linecap="butt" stroke-linejoin="miter" stroke-miterlimit="4.97494" transform="matrix(1,0,0,1,0,0)"
font-family=".SF NS Text" font-size="104" font-weight="400" font-style="normal" 
>
</g>

<g fill="#ffffff" fill-opacity="1" stroke="#000000" stroke-opacity="1" stroke-width="1" stroke-linecap="butt" stroke-linejoin="miter" stroke-miterlimit="4.97494" transform="matrix(1,0,0,1,1068,1509)"
font-family="Arial" font-size="96" font-weight="700" font-style="normal" 
>
<text fill="#000000" fill-opacity="1" stroke="none" xml:space="preserve" x="0" y="86" font-family="Arial" font-size="96" font-weight="700" font-style="normal" 
 >0.4</text>
</g>

<g fill="#ffffff" fill-opacity="1" stroke="#000000" stroke-opacity="1" stroke-width="1" stroke-linecap="butt" stroke-linejoin="miter" stroke-miterlimit="4.97494" transform="matrix(1,0,0,1,0,0)"
font-family=".SF NS Text" font-size="104" font-weight="400" font-style="normal" 
>
</g>

<g fill="#ffffff" fill-opacity="1" stroke="#000000" stroke-opacity="1" stroke-width="8" stroke-linecap="butt" stroke-linejoin="miter" stroke-miterlimit="4.97494" transform="matrix(1,0,0,1,0,0)"
font-family=".SF NS Text" font-size="104" font-weight="400" font-style="normal" 
>
<polyline fill="none" vector-effect="none" points="771,84 771,116 " />
</g>

<g fill="#ffffff" fill-opacity="1" stroke="#000000" stroke-opacity="1" stroke-width="1" stroke-linecap="butt" stroke-linejoin="miter" stroke-miterlimit="4.97494" transform="matrix(1,0,0,1,0,0)"
font-family=".SF NS Text" font-size="104" font-weight="400" font-style="normal" 
>
</g>

<g fill="#ffffff" fill-opacity="1" stroke="#000000" stroke-opacity="1" stroke-width="8" stroke-linecap="butt" stroke-linejoin="miter" stroke-miterlimit="4.97494" transform="matrix(1,0,0,1,0,0)"
font-family=".SF NS Text" font-size="104" font-weight="400" font-style="normal" 
>
<polyline fill="none" vector-effect="none" points="771,1493 771,1461 " />
</g>

<g fill="#ffffff" fill-opacity="1" stroke="#000000" stroke-opacity="1" stroke-width="1" stroke-linecap="butt" stroke-linejoin="miter" stroke-miterlimit="4.97494" transform="matrix(1,0,0,1,0,0)"
font-family=".SF NS Text" font-size="104" font-weight="400" font-style="normal" 
>
</g>

<g fill="#ffffff" fill-opacity="1" stroke="#000000" stroke-opacity="1" stroke-width="1" stroke-linecap="butt" stroke-linejoin="miter" stroke-miterlimit="4.97494" transform="matrix(1,0,0,1,705,1509)"
font-family="Arial" font-size="96" font-weight="700" font-style="normal" 
>
<text fill="#000000" fill-opacity="1" stroke="none" xml:space="preserve" x="0" y="86" font-family="Arial" font-size="96" font-weight="700" font-style="normal" 
 >0.2</text>
</g>

<g fill="#ffffff" fill-opacity="1" stroke="#000000" stroke-opacity="1" stroke-width="1" stroke-linecap="butt" stroke-linejoin="miter" stroke-miterlimit="4.97494" transform="matrix(1,0,0,1,0,0)"
font-family=".SF NS Text" font-size="104" font-weight="400" font-style="normal" 
>
</g>

<g fill="#ffffff" fill-opacity="1" stroke="#000000" stroke-opacity="1" stroke-width="8" stroke-linecap="butt" stroke-linejoin="miter" stroke-miterlimit="4.97494" transform="matrix(1,0,0,1,0,0)"
font-family=".SF NS Text" font-size="104" font-weight="400" font-style="normal" 
>
<polyline fill="none" vector-effect="none" points="408,84 408,116 " />
</g>

<g fill="#ffffff" fill-opacity="1" stroke="#000000" stroke-opacity="1" stroke-width="1" stroke-linecap="butt" stroke-linejoin="miter" stroke-miterlimit="4.97494" transform="matrix(1,0,0,1,0,0)"
font-family=".SF NS Text" font-size="104" font-weight="400" font-style="normal" 
>
</g>

<g fill="#ffffff" fill-opacity="1" stroke="#000000" stroke-opacity="1" stroke-width="8" stroke-linecap="butt" stroke-linejoin="miter" stroke-miterlimit="4.97494" transform="matrix(1,0,0,1,0,0)"
font-family=".SF NS Text" font-size="104" font-weight="400" font-style="normal" 
>
<polyline fill="none" vector-effect="none" points="408,1493 408,1461 " />
</g>

<g fill="#ffffff" fill-opacity="1" stroke="#000000" stroke-opacity="1" stroke-width="1" stroke-linecap="butt" stroke-linejoin="miter" stroke-miterlimit="4.97494" transform="matrix(1,0,0,1,0,0)"
font-family=".SF NS Text" font-size="104" font-weight="400" font-style="normal" 
>
</g>

<g fill="#ffffff" fill-opacity="1" stroke="#000000" stroke-opacity="1" stroke-width="1" stroke-linecap="butt" stroke-linejoin="miter" stroke-miterlimit="4.97494" transform="matrix(1,0,0,1,342,1509)"
font-family="Arial" font-size="96" font-weight="700" font-style="normal" 
>
<text fill="#000000" fill-opacity="1" stroke="none" xml:space="preserve" x="0" y="86" font-family="Arial" font-size="96" font-weight="700" font-style="normal" 
 >0.0</text>
</g>

<g fill="#ffffff" fill-opacity="1" stroke="#000000" stroke-opacity="1" stroke-width="1" stroke-linecap="butt" stroke-linejoin="miter" stroke-miterlimit="4.97494" transform="matrix(1,0,0,1,0,0)"
font-family=".SF NS Text" font-size="104" font-weight="400" font-style="normal" 
>
</g>

<g fill="#ffffff" fill-opacity="1" stroke="#000000" stroke-opacity="1" stroke-width="1" stroke-linecap="butt" stroke-linejoin="miter" stroke-miterlimit="4.97494" transform="matrix(1,0,0,1,827,1603)"
font-family="Arial" font-size="96" font-weight="700" font-style="normal" 
>
<text fill="#000000" fill-opacity="1" stroke="none" xml:space="preserve" x="0" y="124" font-family="Arial" font-size="96" font-weight="700" font-style="normal" 
 >Time [x10</text>
</g>

<g fill="#ffffff" fill-opacity="1" stroke="#000000" stroke-opacity="1" stroke-width="1" stroke-linecap="butt" stroke-linejoin="miter" stroke-miterlimit="4.97494" transform="matrix(1,0,0,1,827,1603)"
font-family="Arial" font-size="67" font-weight="700" font-style="normal" 
>
<text fill="#000000" fill-opacity="1" stroke="none" xml:space="preserve" x="441" y="60" font-family="Arial" font-size="67" font-weight="700" font-style="normal" 
 >-3</text>
</g>

<g fill="#ffffff" fill-opacity="1" stroke="#000000" stroke-opacity="1" stroke-width="1" stroke-linecap="butt" stroke-linejoin="miter" stroke-miterlimit="4.97494" transform="matrix(1,0,0,1,827,1603)"
font-family="Arial" font-size="96" font-weight="700" font-style="normal" 
>
<text fill="#000000" fill-opacity="1" stroke="none" xml:space="preserve" x="501" y="124" font-family="Arial" font-size="96" font-weight="700" font-style="normal" 
 >  seconds]</text>
</g>

<g fill="#ffffff" fill-opacity="1" stroke="#000000" stroke-opacity="1" stroke-width="1" stroke-linecap="butt" stroke-linejoin="miter" stroke-miterlimit="4.97494" transform="matrix(1,0,0,1,0,0)"
font-family=".SF NS Text" font-size="104" font-weight="400" font-style="normal" 
>
</g>

<g fill="#ffffff" fill-opacity="1" stroke="#ff0000" stroke-opacity="1" stroke-width="1" stroke-linecap="butt" stroke-linejoin="miter" stroke-miterlimit="4.97494" transform="matrix(1,0,0,1,0,0)"
font-family=".SF NS Text" font-size="104" font-weight="400" font-style="normal" 
>
</g>

<g fill="#ffffff" fill-opacity="1" stroke="#ff0000" stroke-opacity="1" stroke-width="8" stroke-linecap="butt" stroke-linejoin="miter" stroke-miterlimit="4.97494" transform="matrix(1,0,0,1,0,0)"
font-family=".SF NS Text" font-size="104" font-weight="400" font-style="normal" 
>
<polyline fill="none" vector-effect="none" points="2242,92 2242,1485 " />
</g>

<g fill="#ffffff" fill-opacity="1" stroke="#ff0000" stroke-opacity="1" stroke-width="1" stroke-linecap="butt" stroke-linejoin="miter" stroke-miterlimit="4.97494" transform="matrix(1,0,0,1,0,0)"
font-family=".SF NS Text" font-size="104" font-weight="400" font-style="normal" 
>
</g>

<g fill="#ffffff" fill-opacity="1" stroke="#ff0000" stroke-opacity="1" stroke-width="8" stroke-linecap="butt" stroke-linejoin="miter" stroke-miterlimit="4.97494" transform="matrix(1,0,0,1,0,0)"
font-family=".SF NS Text" font-size="104" font-weight="400" font-style="normal" 
>
<polyline fill="none" vector-effect="none" points="2246,1419 2214,1419 " />
</g>

<g fill="#ffffff" fill-opacity="1" stroke="#ff0000" stroke-opacity="1" stroke-width="1" stroke-linecap="butt" stroke-linejoin="miter" stroke-miterlimit="4.97494" transform="matrix(1,0,0,1,0,0)"
font-family=".SF NS Text" font-size="104" font-weight="400" font-style="normal" 
>
</g>

<g fill="#ffffff" fill-opacity="1" stroke="#ff0000" stroke-opacity="1" stroke-width="1" stroke-linecap="butt" stroke-linejoin="miter" stroke-miterlimit="4.97494" transform="matrix(1,0,0,1,2262,1365)"
font-family="Arial" font-size="96" font-weight="700" font-style="normal" 
>
<text fill="#ff0000" fill-opacity="1" stroke="none" xml:space="preserve" x="0" y="86" font-family="Arial" font-size="96" font-weight="700" font-style="normal" 
 >-15</text>
</g>

<g fill="#ffffff" fill-opacity="1" stroke="#ff0000" stroke-opacity="1" stroke-width="1" stroke-linecap="butt" stroke-linejoin="miter" stroke-miterlimit="4.97494" transform="matrix(1,0,0,1,0,0)"
font-family=".SF NS Text" font-size="104" font-weight="400" font-style="normal" 
>
</g>

<g fill="#ffffff" fill-opacity="1" stroke="#ff0000" stroke-opacity="1" stroke-width="8" stroke-linecap="butt" stroke-linejoin="miter" stroke-miterlimit="4.97494" transform="matrix(1,0,0,1,0,0)"
font-family=".SF NS Text" font-size="104" font-weight="400" font-style="normal" 
>
<polyline fill="none" vector-effect="none" points="2246,1197 2214,1197 " />
</g>

<g fill="#ffffff" fill-opacity="1" stroke="#ff0000" stroke-opacity="1" stroke-width="1" stroke-linecap="butt" stroke-linejoin="miter" stroke-miterlimit="4.97494" transform="matrix(1,0,0,1,0,0)"
font-family=".SF NS Text" font-size="104" font-weight="400" font-style="normal" 
>
</g>

<g fill="#ffffff" fill-opacity="1" stroke="#ff0000" stroke-opacity="1" stroke-width="1" stroke-linecap="butt" stroke-linejoin="miter" stroke-miterlimit="4.97494" transform="matrix(1,0,0,1,2262,1143)"
font-family="Arial" font-size="96" font-weight="700" font-style="normal" 
>
<text fill="#ff0000" fill-opacity="1" stroke="none" xml:space="preserve" x="0" y="86" font-family="Arial" font-size="96" font-weight="700" font-style="normal" 
 >-10</text>
</g>

<g fill="#ffffff" fill-opacity="1" stroke="#ff0000" stroke-opacity="1" stroke-width="1" stroke-linecap="butt" stroke-linejoin="miter" stroke-miterlimit="4.97494" transform="matrix(1,0,0,1,0,0)"
font-family=".SF NS Text" font-size="104" font-weight="400" font-style="normal" 
>
</g>

<g fill="#ffffff" fill-opacity="1" stroke="#ff0000" stroke-opacity="1" stroke-width="8" stroke-linecap="butt" stroke-linejoin="miter" stroke-miterlimit="4.97494" transform="matrix(1,0,0,1,0,0)"
font-family=".SF NS Text" font-size="104" font-weight="400" font-style="normal" 
>
<polyline fill="none" vector-effect="none" points="2246,976 2214,976 " />
</g>

<g fill="#ffffff" fill-opacity="1" stroke="#ff0000" stroke-opacity="1" stroke-width="1" stroke-linecap="butt" stroke-linejoin="miter" stroke-miterlimit="4.97494" transform="matrix(1,0,0,1,0,0)"
font-family=".SF NS Text" font-size="104" font-weight="400" font-style="normal" 
>
</g>

<g fill="#ffffff" fill-opacity="1" stroke="#ff0000" stroke-opacity="1" stroke-width="1" stroke-linecap="butt" stroke-linejoin="miter" stroke-miterlimit="4.97494" transform="matrix(1,0,0,1,2262,922)"
font-family="Arial" font-size="96" font-weight="700" font-style="normal" 
>
<text fill="#ff0000" fill-opacity="1" stroke="none" xml:space="preserve" x="0" y="86" font-family="Arial" font-size="96" font-weight="700" font-style="normal" 
 >-5</text>
</g>

<g fill="#ffffff" fill-opacity="1" stroke="#ff0000" stroke-opacity="1" stroke-width="1" stroke-linecap="butt" stroke-linejoin="miter" stroke-miterlimit="4.97494" transform="matrix(1,0,0,1,0,0)"
font-family=".SF NS Text" font-size="104" font-weight="400" font-style="normal" 
>
</g>

<g fill="#ffffff" fill-opacity="1" stroke="#ff0000" stroke-opacity="1" stroke-width="8" stroke-linecap="butt" stroke-linejoin="miter" stroke-miterlimit="4.97494" transform="matrix(1,0,0,1,0,0)"
font-family=".SF NS Text" font-size="104" font-weight="400" font-style="normal" 
>
<polyline fill="none" vector-effect="none" points="2246,755 2214,755 " />
</g>

<g fill="#ffffff" fill-opacity="1" stroke="#ff0000" stroke-opacity="1" stroke-width="1" stroke-linecap="butt" stroke-linejoin="miter" stroke-miterlimit="4.97494" transform="matrix(1,0,0,1,0,0)"
font-family=".SF NS Text" font-size="104" font-weight="400" font-style="normal" 
>
</g>

<g fill="#ffffff" fill-opacity="1" stroke="#ff0000" stroke-opacity="1" stroke-width="1" stroke-linecap="butt" stroke-linejoin="miter" stroke-miterlimit="4.97494" transform="matrix(1,0,0,1,2294,701)"
font-family="Arial" font-size="96" font-weight="700" font-style="normal" 
>
<text fill="#ff0000" fill-opacity="1" stroke="none" xml:space="preserve" x="0" y="86" font-family="Arial" font-size="96" font-weight="700" font-style="normal" 
 >0</text>
</g>

<g fill="#ffffff" fill-opacity="1" stroke="#ff0000" stroke-opacity="1" stroke-width="1" stroke-linecap="butt" stroke-linejoin="miter" stroke-miterlimit="4.97494" transform="matrix(1,0,0,1,0,0)"
font-family=".SF NS Text" font-size="104" font-weight="400" font-style="normal" 
>
</g>

<g fill="#ffffff" fill-opacity="1" stroke="#ff0000" stroke-opacity="1" stroke-width="8" stroke-linecap="butt" stroke-linejoin="miter" stroke-miterlimit="4.97494" transform="matrix(1,0,0,1,0,0)"
font-family=".SF NS Text" font-size="104" font-weight="400" font-style="normal" 
>
<polyline fill="none" vector-effect="none" points="2246,533 2214,533 " />
</g>

<g fill="#ffffff" fill-opacity="1" stroke="#ff0000" stroke-opacity="1" stroke-width="1" stroke-linecap="butt" stroke-linejoin="miter" stroke-miterlimit="4.97494" transform="matrix(1,0,0,1,0,0)"
font-family=".SF NS Text" font-size="104" font-weight="400" font-style="normal" 
>
</g>

<g fill="#ffffff" fill-opacity="1" stroke="#ff0000" stroke-opacity="1" stroke-width="1" stroke-linecap="butt" stroke-linejoin="miter" stroke-miterlimit="4.97494" transform="matrix(1,0,0,1,2294,479)"
font-family="Arial" font-size="96" font-weight="700" font-style="normal" 
>
<text fill="#ff0000" fill-opacity="1" stroke="none" xml:space="preserve" x="0" y="86" font-family="Arial" font-size="96" font-weight="700" font-style="normal" 
 >5</text>
</g>

<g fill="#ffffff" fill-opacity="1" stroke="#ff0000" stroke-opacity="1" stroke-width="1" stroke-linecap="butt" stroke-linejoin="miter" stroke-miterlimit="4.97494" transform="matrix(1,0,0,1,0,0)"
font-family=".SF NS Text" font-size="104" font-weight="400" font-style="normal" 
>
</g>

<g fill="#ffffff" fill-opacity="1" stroke="#ff0000" stroke-opacity="1" stroke-width="8" stroke-linecap="butt" stroke-linejoin="miter" stroke-miterlimit="4.97494" transform="matrix(1,0,0,1,0,0)"
font-family=".SF NS Text" font-size="104" font-weight="400" font-style="normal" 
>
<polyline fill="none" vector-effect="none" points="2246,312 2214,312 " />
</g>

<g fill="#ffffff" fill-opacity="1" stroke="#ff0000" stroke-opacity="1" stroke-width="1" stroke-linecap="butt" stroke-linejoin="miter" stroke-miterlimit="4.97494" transform="matrix(1,0,0,1,0,0)"
font-family=".SF NS Text" font-size="104" font-weight="400" font-style="normal" 
>
</g>

<g fill="#ffffff" fill-opacity="1" stroke="#ff0000" stroke-opacity="1" stroke-width="1" stroke-linecap="butt" stroke-linejoin="miter" stroke-miterlimit="4.97494" transform="matrix(1,0,0,1,2294,258)"
font-family="Arial" font-size="96" font-weight="700" font-style="normal" 
>
<text fill="#ff0000" fill-opacity="1" stroke="none" xml:space="preserve" x="0" y="86" font-family="Arial" font-size="96" font-weight="700" font-style="normal" 
 >10</text>
</g>

<g fill="#ffffff" fill-opacity="1" stroke="#ff0000" stroke-opacity="1" stroke-width="1" stroke-linecap="butt" stroke-linejoin="miter" stroke-miterlimit="4.97494" transform="matrix(1,0,0,1,0,0)"
font-family=".SF NS Text" font-size="104" font-weight="400" font-style="normal" 
>
</g>

<g fill="#ffffff" fill-opacity="1" stroke="#ff0000" stroke-opacity="1" stroke-width="1" stroke-linecap="butt" stroke-linejoin="miter" stroke-miterlimit="4.97494" transform="matrix(-1.83697e-16,1,-1,-1.83697e-16,2577,421)"
font-family="Arial" font-size="96" font-weight="700" font-style="normal" 
>
<text fill="#ff0000" fill-opacity="1" stroke="none" xml:space="preserve" x="0" y="124" font-family="Arial" font-size="96" font-weight="700" font-style="normal" 
 >current [x10</text>
</g>

<g fill="#ffffff" fill-opacity="1" stroke="#ff0000" stroke-opacity="1" stroke-width="1" stroke-linecap="butt" stroke-linejoin="miter" stroke-miterlimit="4.97494" transform="matrix(-1.83697e-16,1,-1,-1.83697e-16,2577,421)"
font-family="Arial" font-size="67" font-weight="700" font-style="normal" 
>
<text fill="#ff0000" fill-opacity="1" stroke="none" xml:space="preserve" x="550" y="60" font-family="Arial" font-size="67" font-weight="700" font-style="normal" 
 >-3</text>
</g>

<g fill="#ffffff" fill-opacity="1" stroke="#ff0000" stroke-opacity="1" stroke-width="1" stroke-linecap="butt" stroke-linejoin="miter" stroke-miterlimit="4.97494" transform="matrix(-1.83697e-16,1,-1,-1.83697e-16,2577,421)"
font-family="Arial" font-size="96" font-weight="700" font-style="normal" 
>
<text fill="#ff0000" fill-opacity="1" stroke="none" xml:space="preserve" x="610" y="124" font-family="Arial" font-size="96" font-weight="700" font-style="normal" 
 > A]</text>
</g>

<g fill="#ffffff" fill-opacity="1" stroke="#ff0000" stroke-opacity="1" stroke-width="1" stroke-linecap="butt" stroke-linejoin="miter" stroke-miterlimit="4.97494" transform="matrix(1,0,0,1,0,0)"
font-family=".SF NS Text" font-size="104" font-weight="400" font-style="normal" 
>
</g>

<g fill="#ffffff" fill-opacity="1" stroke="#000000" stroke-opacity="1" stroke-width="1" stroke-linecap="butt" stroke-linejoin="miter" stroke-miterlimit="4.97494" transform="matrix(1,0,0,1,0,0)"
font-family=".SF NS Text" font-size="104" font-weight="400" font-style="normal" 
>
</g>

<g fill="#ffffff" fill-opacity="1" stroke="#0000f2" stroke-opacity="1" stroke-width="1" stroke-linecap="butt" stroke-linejoin="bevel" transform="matrix(1,0,0,1,0,0)"
font-family=".SF NS Text" font-size="104" font-weight="400" font-style="normal" 
>
</g>

<g fill="none" stroke="#0000f2" stroke-opacity="1" stroke-width="8" stroke-linecap="butt" stroke-linejoin="bevel" transform="matrix(1,0,0,1,0,0)"
font-family=".SF NS Text" font-size="104" font-weight="400" font-style="normal" 
>
<path vector-effect="none" fill-rule="nonzero" d="M408,621 L410,664 L412,743 L413,750 L415,670 L417,675 L419,677 L421,637 L423,639 L424,638 L426,628 L428,627 L430,596 L432,533 L433,502 L435,541 L437,583 L439,592 L441,586 L443,575 L444,582 L446,584 L448,561 L450,614 L452,673 L453,676 L455,628 L457,560 L459,540 L461,558 L462,589 L464,596 L466,537 L468,488 L470,473 L472,460 L473,473 L475,492 L477,512 L479,538 L481,511 L482,495 L484,491 L486,524 L488,574 L490,597 L492,570 L493,552 L495,534 L497,493 L499,461 L501,509 L502,525 L504,486 L506,460 L508,397 L510,350 L512,411 L513,453 L515,448 L517,437 L519,449 L521,455 L522,433 L524,421 L526,482 L528,560 L530,541 L531,477 L533,435 L535,428 L537,447 L539,454 L541,436 L542,412 L544,393 L546,333 L548,341 L550,358 L551,346 L553,385 L555,430 L557,393 L559,356 L561,376 L562,402 L564,434 L566,456 L568,451 L570,433 L571,436 L573,382 L575,351 L577,389 L579,423 L581,381 L582,313 L584,289 L586,268 L588,274 L590,337 L591,337 L593,326 L595,333 L597,354 L599,348 L600,311 L602,350 L604,433 L606,446 L608,374 L610,325 L611,345 L613,345 L615,343 L617,338 L619,318 L620,306 L622,273 L624,213 L626,219 L628,261 L630,291 L631,324 L633,285 L635,255 L637,288 L639,313 L640,334 L642,362 L644,372 L646,366 L648,344 L650,276 L651,248 L653,293 L655,348 L657,292 L659,224 L660,200 L662,206 L664,215 L666,216 L668,220 L669,278 L671,278 L673,257 L675,229 L677,220 L679,300 L680,376 L682,349 L684,291 L686,291 L688,285 L689,257 L691,240 L693,260 L695,274 L697,247 L699,164 L700,115 L702,170 L704,229 L706,238 L708,217 L709,223 L711,233 L713,223 L715,233 L717,260 L719,288 L720,322 L722,330 L724,270 L726,213 L728,219 L729,270 L731,271 L733,228 L735,178 L737,178 L738,158 L740,137 L742,150 L744,206 L746,261 L748,215 L749,182 L751,187 L753,222 L755,246 L757,310 L758,304 L760,264 L762,247 L764,234 L766,215 L768,227 L769,247 L771,239 L773,211 L775,151 L777,108 L778,142 L780,196 L782,189 L784,191 L786,207 L788,224 L789,193 L791,191 L793,232 L795,315 L797,302 L798,296 L800,248 L802,207 L804,202 L806,239 L807,255 L809,229 L811,193 L813,161 L815,139 L817,145 L818,147 L820,182 L822,230 L824,230 L826,175 L827,180 L829,227 L831,260 L833,285 L835,297 L837,286 L838,263 L840,242 L842,226 L844,223 L846,235 L847,252 L849,218 L851,171 L853,128 L855,154 L857,185 L858,198 L860,217 L862,224 L864,225 L866,228 L867,215 L869,220 L871,307 L873,360 L875,316 L876,263 L878,238 L880,229 L882,265 L884,292 L886,227 L887,203 L889,234 L891,186 L893,145 L895,164 L896,228 L898,288 L900,271 L902,202 L904,214 L906,250 L907,283 L909,317 L911,324 L913,343 L915,342 L916,293 L918,237 L920,261 L922,296 L924,315 L926,269 L927,204 L929,166 L931,208 L933,230 L935,229 L936,260 L938,307 L940,307 L942,257 L944,230 L945,284 L947,395 L949,410 L951,347 L953,308 L955,333 L956,315 L958,305 L960,308 L962,333 L964,322 L965,291 L967,235 L969,199 L971,238 L973,302 L975,320 L976,322 L978,296 L980,305 L982,340 L984,334 L985,375 L987,445 L989,445 L991,396 L993,333 L995,325 L996,367 L998,406 L1000,370 L1002,325 L1004,327 L1005,297 L1007,281 L1009,301 L1011,325 L1013,343 L1014,390 L1016,369 L1018,332 L1020,341 L1022,384 L1024,455 L1025,505 L1027,458 L1029,433 L1031,438 L1033,416 L1034,402 L1036,417 L1038,445 L1040,424 L1042,365 L1044,316 L1045,337 L1047,373 L1049,395 L1051,428 L1053,416 L1054,411 L1056,412 L1058,430 L1060,430 L1062,472 L1064,540 L1065,552 L1067,512 L1069,461 L1071,453 L1073,481 L1074,514 L1076,484 L1078,448 L1080,442 L1082,422 L1083,386 L1085,406 L1087,446 L1089,471 L1091,495 L1093,510 L1094,465 L1096,451 L1098,499 L1100,576 L1102,614 L1103,585 L1105,544 L1107,571 L1109,551 L1111,515 L1113,537 L1114,569 L1116,557 L1118,499 L1120,448 L1122,466 L1123,500 L1125,507 L1127,507 L1129,544 L1131,568 L1133,560 L1134,574 L1136,538 L1138,581 L1140,682 L1142,708 L1143,645 L1145,586 L1147,587 L1149,622 L1151,635 L1152,612 L1154,583 L1156,602 L1158,572 L1160,513 L1162,519 L1163,575 L1165,628 L1167,631 L1169,611 L1171,610 L1172,629 L1174,629 L1176,703 L1178,729 L1180,733 L1182,729 L1183,715 L1185,651 L1187,632 L1189,687 L1191,738 L1192,697 L1194,623 L1196,601 L1198,619 L1200,646 L1202,650 L1203,640 L1205,702 L1207,737 L1209,704 L1211,656 L1212,675 L1214,764 L1216,833 L1218,847 L1220,787 L1221,736 L1223,744 L1225,760 L1227,760 L1229,767 L1231,766 L1232,760 L1234,704 L1236,644 L1238,685 L1240,751 L1241,771 L1243,771 L1245,761 L1247,762 L1249,787 L1251,792 L1252,789 L1254,879 L1256,909 L1258,882 L1260,858 L1261,804 L1263,800 L1265,856 L1267,881 L1269,838 L1271,785 L1272,774 L1274,767 L1276,767 L1278,766 L1280,812 L1281,882 L1283,881 L1285,834 L1287,820 L1289,853 L1290,916 L1292,959 L1294,964 L1296,943 L1298,925 L1300,891 L1301,893 L1303,928 L1305,920 L1307,933 L1309,902 L1310,845 L1312,806 L1314,837 L1316,880 L1318,893 L1320,919 L1321,902 L1323,925 L1325,936 L1327,932 L1329,948 L1330,1029 L1332,1061 L1334,1040 L1336,975 L1338,952 L1340,952 L1341,988 L1343,1024 L1345,980 L1347,935 L1349,944 L1350,925 L1352,921 L1354,938 L1356,962 L1358,985 L1359,1016 L1361,991 L1363,967 L1365,985 L1367,1030 L1369,1096 L1370,1099 L1372,1102 L1374,1087 L1376,1056 L1378,1021 L1379,1053 L1381,1082 L1383,1055 L1385,1050 L1387,1007 L1389,945 L1390,971 L1392,1031 L1394,1047 L1396,1043 L1398,1055 L1399,1077 L1401,1077 L1403,1051 L1405,1067 L1407,1153 L1409,1212 L1410,1179 L1412,1138 L1414,1102 L1416,1102 L1418,1137 L1419,1145 L1421,1114 L1423,1090 L1425,1086 L1427,1063 L1428,1044 L1430,1033 L1432,1081 L1434,1136 L1436,1150 L1438,1107 L1439,1106 L1441,1134 L1443,1158 L1445,1206 L1447,1233 L1448,1232 L1450,1236 L1452,1190 L1454,1133 L1456,1149 L1458,1223 L1459,1228 L1461,1156 L1463,1115 L1465,1092 L1467,1098 L1468,1145 L1470,1162 L1472,1136 L1474,1181 L1476,1231 L1478,1202 L1479,1151 L1481,1165 L1483,1277 L1485,1338 L1487,1280 L1488,1228 L1490,1244 L1492,1249 L1494,1225 L1496,1221 L1497,1241 L1499,1251 L1501,1216 L1503,1137 L1505,1122 L1507,1173 L1508,1204 L1510,1251 L1512,1248 L1514,1196 L1516,1218 L1517,1261 L1519,1258 L1521,1281 L1523,1349 L1525,1370 L1527,1323 L1528,1269 L1530,1232 L1532,1272 L1534,1338 L1536,1311 L1537,1236 L1539,1210 L1541,1229 L1543,1225 L1545,1197 L1547,1217 L1548,1280 L1550,1303 L1552,1279 L1554,1254 L1556,1249 L1557,1288 L1559,1353 L1561,1392 L1563,1372 L1565,1341 L1566,1340 L1568,1317 L1570,1293 L1572,1312 L1574,1336 L1576,1334 L1577,1278 L1579,1208 L1581,1219 L1583,1277 L1585,1294 L1586,1298 L1588,1291 L1590,1316 L1592,1314 L1594,1311 L1596,1305 L1597,1361 L1599,1436 L1601,1421 L1603,1373 L1605,1340 L1606,1343 L1608,1355 L1610,1370 L1612,1351 L1614,1322 L1616,1313 L1617,1277 L1619,1256 L1621,1262 L1623,1287 L1625,1335 L1626,1355 L1628,1333 L1630,1308 L1632,1340 L1634,1336 L1635,1400 L1637,1455 L1639,1412 L1641,1383 L1643,1383 L1645,1374 L1646,1358 L1648,1363 L1650,1394 L1652,1371 L1654,1319 L1655,1273 L1657,1268 L1659,1307 L1661,1314 L1663,1325 L1665,1342 L1666,1353 L1668,1349 L1670,1335 L1672,1344 L1674,1410 L1675,1448 L1677,1455 L1679,1431 L1681,1381 L1683,1343 L1685,1378 L1686,1407 L1688,1380 L1690,1331 L1692,1337 L1694,1334 L1695,1292 L1697,1271 L1699,1301 L1701,1363 L1703,1386 L1704,1344 L1706,1318 L1708,1353 L1710,1359 L1712,1388 L1714,1443 L1715,1456 L1717,1419 L1719,1410 L1721,1386 L1723,1354 L1724,1364 L1726,1403 L1728,1390 L1730,1339 L1732,1270 L1734,1265 L1735,1302 L1737,1316 L1739,1309 L1741,1351 L1743,1380 L1744,1353 L1746,1316 L1748,1316 L1750,1387 L1752,1469 L1754,1451 L1755,1377 L1757,1368 L1759,1371 L1761,1369 L1763,1395 L1764,1363 L1766,1339 L1768,1344 L1770,1317 L1772,1259 L1773,1247 L1775,1278 L1777,1337 L1779,1376 L1781,1320 L1783,1292 L1784,1324 L1786,1352 L1788,1343 L1790,1398 L1792,1434 L1793,1423 L1795,1368 L1797,1314 L1799,1315 L1801,1349 L1803,1378 L1804,1359 L1806,1294 L1808,1249 L1810,1254 L1812,1272 L1813,1263 L1815,1286 L1817,1327 L1819,1332 L1821,1292 L1823,1270 L1824,1276 L1826,1346 L1828,1424 L1830,1399 L1832,1336 L1833,1328 L1835,1348 L1837,1307 L1839,1300 L1841,1331 L1842,1319 L1844,1278 L1846,1267 L1848,1193 L1850,1189 L1852,1246 L1853,1282 L1855,1289 L1857,1264 L1859,1260 L1861,1279 L1862,1267 L1864,1274 L1866,1333 L1868,1380 L1870,1347 L1872,1288 L1873,1257 L1875,1274 L1877,1313 L1879,1301 L1881,1254 L1882,1221 L1884,1215 L1886,1172 L1888,1196 L1890,1180 L1892,1191 L1893,1248 L1895,1263 L1897,1216 L1899,1189 L1901,1209 L1902,1258 L1904,1315 L1906,1310 L1908,1273 L1910,1263 L1911,1259 L1913,1229 L1915,1210 L1917,1237 L1919,1254 L1921,1207 L1922,1146 L1924,1115 L1926,1132 L1928,1150 L1930,1174 L1931,1168 L1933,1180 L1935,1163 L1937,1191 L1939,1162 L1941,1156 L1942,1228 L1944,1294 L1946,1268 L1948,1189 L1950,1148 L1951,1179 L1953,1208 L1955,1180 L1957,1149 L1959,1138 L1961,1139 L1962,1084 L1964,1045 L1966,1077 L1968,1099 L1970,1131 L1971,1159 L1973,1108 L1975,1066 L1977,1104 L1979,1157 L1980,1183 L1982,1185 L1984,1172 L1986,1180 L1988,1144 L1990,1083 L1991,1086 L1993,1143 L1995,1152 L1997,1082 L1999,1016 L2000,1005 L2002,1035 L2004,1036 L2006,1011 L2008,1042 L2010,1083 L2011,1067 L2013,1054 L2015,1014 L2017,1029 L2019,1117 L2020,1177 L2022,1132 L2024,1061 L2026,1042 L2028,1062 L2030,1064 L2031,1047 L2033,1028 L2035,1037 L2037,1000 L2039,924 L2040,908 L2042,956 L2044,997 L2046,1006 L2048,974 L2049,984 L2051,990 L2053,972 L2055,979 L2057,1028 L2059,1062 L2060,1063 L2062,1026 L2064,983 L2066,958 L2068,968 L2069,1011 L2071,993 L2073,937 L2075,888 L2077,879 L2079,893 L2080,870 L2082,859 L2084,904 L2086,961 L2088,938 L2089,879 L2091,887 L2093,913 L2095,968 L2097,1027 L2099,981 L2100,916 L2102,911 L2104,911 L2106,892 L2108,897 L2109,925 L2111,900 L2113,834 L2115,782 L2117,782 L2118,809 L2120,836 L2122,840 L2124,836 L2126,833 L2128,840 L2129,835 L2131,818 L2133,872 L2135,928 L2137,919 L2138,898 L2140,844 L2142,788 L2144,814 L2146,855 L2148,853 L2149,797 L2151,758 L2153,719 L2155,731 L2157,736 L2158,731 L2160,764 L2162,805 L2164,782 L2166,738 L2168,738 L2169,744 L2171,805 L2173,849 L2175,837 L2177,804 L2178,770 L2180,768 L2182,756 L2184,735 L2186,752 L2187,765 L2189,706 L2191,627 L2193,610 L2195,669 L2197,691 L2198,686 L2200,682 L2202,691 L2204,696 L2206,679 L2207,636 L2209,706 L2211,798 L2213,796 L2215,711 L2217,675 L2218,678 L2220,669 L2222,715"/>
</g>

<g fill="#ffffff" fill-opacity="1" stroke="#0000f2" stroke-opacity="1" stroke-width="1" stroke-linecap="butt" stroke-linejoin="bevel" transform="matrix(1,0,0,1,0,0)"
font-family=".SF NS Text" font-size="104" font-weight="400" font-style="normal" 
>
</g>

<g fill="#ffffff" fill-opacity="1" stroke="#000000" stroke-opacity="1" stroke-width="1" stroke-linecap="butt" stroke-linejoin="miter" stroke-miterlimit="4.97494" transform="matrix(1,0,0,1,0,0)"
font-family=".SF NS Text" font-size="104" font-weight="400" font-style="normal" 
>
</g>

<g fill="#ffffff" fill-opacity="1" stroke="#ff0000" stroke-opacity="1" stroke-width="1" stroke-linecap="butt" stroke-linejoin="bevel" transform="matrix(1,0,0,1,0,0)"
font-family=".SF NS Text" font-size="104" font-weight="400" font-style="normal" 
>
</g>

<g fill="none" stroke="#ff0000" stroke-opacity="1" stroke-width="8" stroke-linecap="butt" stroke-linejoin="bevel" transform="matrix(1,0,0,1,0,0)"
font-family=".SF NS Text" font-size="104" font-weight="400" font-style="normal" 
>
<path vector-effect="none" fill-rule="nonzero" d="M408,949 L410,996 L412,914 L413,686 L415,503 L417,423 L419,356 L421,322 L423,329 L424,324 L426,319 L428,323 L430,341 L432,420 L433,614 L435,811 L437,927 L439,938 L441,927 L443,924 L444,931 L446,912 L448,907 L450,895 L452,764 L453,540 L455,323 L457,234 L459,274 L461,335 L462,335 L464,270 L466,224 L468,299 L470,434 L472,596 L473,753 L475,868 L477,925 L479,912 L481,860 L482,864 L484,901 L486,929 L488,865 L490,689 L492,501 L493,363 L495,261 L497,211 L499,249 L501,305 L502,278 L504,247 L506,253 L508,331 L510,540 L512,762 L513,859 L515,868 L517,872 L519,879 L521,861 L522,837 L524,865 L526,875 L528,732 L530,474 L531,291 L533,230 L535,249 L537,271 L539,240 L541,204 L542,203 L544,244 L546,358 L548,533 L550,669 L551,785 L553,887 L555,867 L557,799 L559,812 L561,867 L562,878 L564,814 L566,671 L568,506 L570,368 L571,250 L573,173 L575,204 L577,258 L579,219 L581,152 L582,174 L584,306 L586,487 L588,685 L590,806 L591,824 L593,832 L595,863 L597,851 L599,815 L600,805 L602,829 L604,726 L606,481 L608,271 L610,210 L611,221 L613,218 L615,201 L617,188 L619,184 L620,210 L622,259 L624,405 L626,617 L628,784 L630,855 L631,837 L633,788 L635,819 L637,877 L639,862 L640,796 L642,666 L644,503 L646,335 L648,182 L650,115 L651,179 L653,265 L655,219 L657,125 L659,144 L660,287 L662,459 L664,597 L666,705 L668,823 L669,864 L671,817 L673,766 L675,777 L677,849 L679,877 L680,717 L682,466 L684,295 L686,229 L688,168 L689,138 L691,154 L693,188 L695,180 L697,150 L699,199 L700,414 L702,662 L704,787 L706,797 L708,788 L709,808 L711,812 L713,816 L715,823 L717,796 L719,697 L720,545 L722,353 L724,185 L726,150 L728,206 L729,227 L731,164 L733,108 L735,149 L737,257 L738,390 L740,563 L742,754 L744,874 L746,859 L748,772 L749,764 L751,835 L753,863 L755,823 L757,703 L758,484 L760,316 L762,234 L764,187 L766,184 L768,214 L769,207 L771,169 L773,152 L775,202 L777,381 L778,604 L780,734 L782,775 L784,822 L786,846 L788,833 L789,821 L791,845 L793,864 L795,765 L797,543 L798,353 L800,200 L802,157 L804,194 L806,232 L807,195 L809,152 L811,175 L813,258 L815,402 L817,568 L818,728 L820,851 L822,878 L824,810 L826,791 L827,861 L829,900 L831,853 L833,731 L835,563 L837,396 L838,266 L840,205 L842,175 L844,187 L846,212 L847,203 L849,180 L851,239 L853,404 L855,612 L857,751 L858,821 L860,862 L862,862 L864,855 L866,843 L867,836 L869,864 L871,832 L873,634 L875,386 L876,248 L878,217 L880,244 L882,279 L884,211 L886,157 L887,232 L889,318 L891,384 L893,538 L895,751 L896,907 L898,913 L900,822 L902,802 L904,879 L906,923 L907,899 L909,809 L911,663 L913,504 L915,337 L916,212 L918,208 L920,272 L922,283 L924,232 L926,172 L927,222 L929,411 L931,630 L933,765 L935,864 L936,953 L938,954 L940,874 L942,830 L944,890 L945,973 L947,915 L949,659 L951,427 L953,344 L955,314 L956,273 L958,269 L960,288 L962,288 L964,262 L965,286 L967,367 L969,569 L971,805 L973,931 L975,940 L976,913 L978,917 L980,957 L982,975 L984,952 L985,910 L987,767 L989,525 L991,323 L993,254 L995,306 L996,374 L998,331 L1000,255 L1002,272 L1004,354 L1005,456 L1007,625 L1009,787 L1011,896 L1013,975 L1014,969 L1016,907 L1018,913 L1020,990 L1022,1044 L1024,1000 L1025,798 L1027,564 L1029,437 L1031,364 L1033,321 L1034,332 L1036,355 L1038,328 L1040,280 L1042,300 L1044,456 L1045,690 L1047,862 L1049,968 L1051,998 L1053,979 L1054,979 L1056,1004 L1058,1020 L1060,1023 L1062,1002 L1064,872 L1065,645 L1067,455 L1069,365 L1071,387 L1073,411 L1074,370 L1076,305 L1078,308 L1080,382 L1082,487 L1083,646 L1085,845 L1087,994 L1089,1061 L1091,1071 L1093,1020 L1094,989 L1096,1040 L1098,1112 L1100,1066 L1102,873 L1103,652 L1105,529 L1107,467 L1109,394 L1111,382 L1113,428 L1114,419 L1116,363 L1118,369 L1120,497 L1122,711 L1123,882 L1125,973 L1127,1047 L1129,1106 L1131,1107 L1133,1103 L1134,1079 L1136,1068 L1138,1096 L1140,1000 L1142,755 L1143,518 L1145,429 L1147,455 L1149,475 L1151,448 L1152,404 L1154,422 L1156,477 L1158,522 L1160,666 L1162,897 L1163,1077 L1165,1133 L1167,1105 L1169,1086 L1171,1112 L1172,1142 L1174,1175 L1176,1138 L1178,983 L1180,798 L1182,629 L1183,486 L1185,427 L1187,487 L1189,543 L1191,501 L1192,411 L1194,422 L1196,580 L1198,781 L1200,929 L1202,1022 L1203,1133 L1205,1213 L1207,1170 L1209,1089 L1211,1106 L1212,1203 L1214,1228 L1216,1093 L1218,841 L1220,604 L1221,524 L1223,531 L1225,537 L1227,519 L1229,512 L1231,511 L1232,516 L1234,553 L1236,738 L1238,993 L1240,1148 L1241,1172 L1243,1149 L1245,1151 L1247,1184 L1249,1211 L1251,1198 L1252,1206 L1254,1156 L1256,953 L1258,731 L1260,574 L1261,515 L1263,572 L1265,617 L1267,551 L1269,471 L1271,502 L1272,631 L1274,797 L1276,951 L1278,1114 L1280,1248 L1281,1290 L1283,1218 L1285,1171 L1287,1213 L1289,1278 L1290,1272 L1292,1141 L1294,938 L1296,757 L1298,635 L1300,597 L1301,634 L1303,639 L1305,601 L1307,570 L1309,547 L1310,602 L1312,780 L1314,1003 L1316,1164 L1318,1234 L1320,1256 L1321,1259 L1323,1282 L1325,1282 L1327,1271 L1329,1279 L1330,1217 L1332,1013 L1334,771 L1336,620 L1338,610 L1340,652 L1341,685 L1343,636 L1345,565 L1347,610 L1349,713 L1350,842 L1352,996 L1354,1141 L1356,1249 L1358,1299 L1359,1274 L1361,1237 L1363,1266 L1365,1330 L1367,1352 L1369,1252 L1370,1065 L1372,891 L1374,740 L1376,642 L1378,643 L1379,691 L1381,671 L1383,629 L1385,628 L1387,654 L1389,810 L1390,1055 L1392,1217 L1394,1273 L1396,1294 L1398,1323 L1399,1338 L1401,1308 L1403,1302 L1405,1350 L1407,1326 L1409,1138 L1410,903 L1412,747 L1414,684 L1416,705 L1418,713 L1419,658 L1421,625 L1423,652 L1425,727 L1427,832 L1428,979 L1430,1164 L1432,1333 L1434,1389 L1436,1338 L1438,1310 L1439,1348 L1441,1385 L1443,1373 L1445,1291 L1447,1132 L1448,969 L1450,807 L1452,668 L1454,660 L1456,751 L1458,771 L1459,677 L1461,623 L1463,703 L1465,864 L1467,1058 L1468,1217 L1470,1282 L1472,1334 L1474,1419 L1476,1396 L1478,1323 L1479,1319 L1481,1409 L1483,1400 L1485,1189 L1487,926 L1488,805 L1490,775 L1492,736 L1494,709 L1496,709 L1497,734 L1499,728 L1501,711 L1503,800 L1505,1033 L1507,1241 L1508,1357 L1510,1393 L1512,1344 L1514,1332 L1516,1406 L1517,1426 L1519,1403 L1521,1365 L1523,1248 L1525,1032 L1527,812 L1528,704 L1530,736 L1532,809 L1534,788 L1536,667 L1537,642 L1539,755 L1541,901 L1543,1025 L1545,1162 L1547,1337 L1548,1431 L1550,1405 L1552,1357 L1554,1358 L1556,1411 L1557,1469 L1559,1415 L1561,1226 L1563,1008 L1565,866 L1566,778 L1568,721 L1570,724 L1572,765 L1574,758 L1576,704 L1577,696 L1579,827 L1581,1061 L1583,1243 L1585,1334 L1586,1361 L1588,1392 L1590,1408 L1592,1403 L1594,1402 L1596,1420 L1597,1411 L1599,1277 L1601,1037 L1603,853 L1605,782 L1606,779 L1608,780 L1610,742 L1612,699 L1614,702 L1616,758 L1617,844 L1619,1007 L1621,1194 L1623,1358 L1625,1435 L1626,1407 L1628,1363 L1630,1391 L1632,1423 L1634,1432 L1635,1411 L1637,1241 L1639,1022 L1641,890 L1643,824 L1645,767 L1646,765 L1648,776 L1650,752 L1652,695 L1654,701 L1655,814 L1657,1015 L1659,1193 L1661,1295 L1663,1371 L1665,1405 L1666,1402 L1668,1394 L1670,1403 L1672,1441 L1674,1419 L1675,1269 L1677,1071 L1679,866 L1681,746 L1683,753 L1685,793 L1686,762 L1688,697 L1690,697 L1692,776 L1694,848 L1695,955 L1697,1129 L1699,1309 L1701,1407 L1703,1366 L1704,1320 L1706,1364 L1708,1418 L1710,1421 L1712,1395 L1714,1287 L1715,1093 L1717,913 L1719,812 L1721,728 L1723,704 L1724,749 L1726,751 L1728,691 L1730,670 L1732,761 L1734,968 L1735,1156 L1737,1267 L1739,1346 L1741,1403 L1743,1387 L1744,1333 L1746,1332 L1748,1398 L1750,1432 L1752,1289 L1754,1039 L1755,856 L1757,797 L1759,773 L1761,781 L1763,742 L1764,674 L1766,676 L1768,719 L1770,757 L1772,873 L1773,1078 L1775,1274 L1777,1381 L1779,1351 L1781,1299 L1783,1339 L1784,1400 L1786,1390 L1788,1347 L1790,1273 L1792,1105 L1793,884 L1795,713 L1797,672 L1799,728 L1801,761 L1803,734 L1804,649 L1806,632 L1808,742 L1810,929 L1812,1075 L1813,1193 L1815,1307 L1817,1341 L1819,1290 L1821,1256 L1823,1304 L1824,1381 L1826,1415 L1828,1271 L1830,1022 L1832,849 L1833,784 L1835,731 L1837,683 L1839,694 L1841,692 L1842,647 L1844,648 L1846,692 L1848,806 L1850,1026 L1852,1219 L1853,1285 L1855,1271 L1857,1258 L1859,1296 L1861,1316 L1862,1310 L1864,1321 L1866,1268 L1868,1086 L1870,844 L1872,701 L1873,686 L1875,727 L1877,714 L1879,625 L1881,560 L1882,595 L1884,678 L1886,816 L1888,979 L1890,1109 L1892,1236 L1893,1307 L1895,1267 L1897,1221 L1899,1266 L1901,1338 L1902,1346 L1904,1216 L1906,1003 L1908,832 L1910,730 L1911,658 L1913,615 L1915,628 L1917,641 L1919,594 L1921,547 L1922,599 L1924,767 L1926,967 L1928,1107 L1930,1182 L1931,1203 L1933,1237 L1935,1251 L1937,1251 L1939,1226 L1941,1245 L1942,1233 L1944,1058 L1946,794 L1948,619 L1950,612 L1951,652 L1953,629 L1955,555 L1957,537 L1959,577 L1961,621 L1962,695 L1964,865 L1966,1057 L1968,1173 L1970,1226 L1971,1190 L1973,1129 L1975,1184 L1977,1266 L1979,1256 L1980,1146 L1982,979 L1984,823 L1986,680 L1988,565 L1990,530 L1991,592 L1993,612 L1995,530 L1997,452 L1999,531 L2000,712 L2002,881 L2004,976 L2006,1076 L2008,1180 L2010,1195 L2011,1153 L2013,1129 L2015,1136 L2017,1205 L2019,1208 L2020,1012 L2022,741 L2024,586 L2026,564 L2028,562 L2030,525 L2031,493 L2033,486 L2035,495 L2037,496 L2039,586 L2040,801 L2042,1008 L2044,1100 L2046,1099 L2048,1085 L2049,1119 L2051,1134 L2053,1128 L2055,1139 L2057,1097 L2059,956 L2060,755 L2062,582 L2064,498 L2066,497 L2068,534 L2069,513 L2071,428 L2073,392 L2075,469 L2077,607 L2079,751 L2080,869 L2082,1013 L2084,1136 L2086,1136 L2088,1052 L2089,1033 L2091,1089 L2093,1132 L2095,1094 L2097,923 L2099,663 L2100,528 L2102,500 L2104,472 L2106,469 L2108,477 L2109,452 L2111,391 L2113,396 L2115,511 L2117,712 L2118,877 L2120,972 L2122,1009 L2124,1025 L2126,1045 L2128,1061 L2129,1049 L2131,1061 L2133,1064 L2135,933 L2137,719 L2138,522 L2140,392 L2142,386 L2144,457 L2146,459 L2148,382 L2149,332 L2151,386 L2153,511 L2155,673 L2157,805 L2158,924 L2160,1017 L2162,1013 L2164,958 L2166,956 L2168,1005 L2169,1045 L2171,1022 L2173,875 L2175,680 L2177,520 L2178,430 L2180,399 L2182,367 L2184,368 L2186,378 L2187,336 L2189,300 L2191,395 L2193,617 L2195,832 L2197,913 L2198,929 L2200,949 L2202,966 L2204,955 L2206,932 L2207,956 L2209,1014 L2211,913 L2213,648 L2215,439 L2217,383 L2218,394 L2220,404 L2222,393"/>
</g>

<g fill="#ffffff" fill-opacity="1" stroke="#ff0000" stroke-opacity="1" stroke-width="1" stroke-linecap="butt" stroke-linejoin="bevel" transform="matrix(1,0,0,1,0,0)"
font-family=".SF NS Text" font-size="104" font-weight="400" font-style="normal" 
>
</g>

<g fill="#ffffff" fill-opacity="1" stroke="#000000" stroke-opacity="1" stroke-width="1" stroke-linecap="butt" stroke-linejoin="miter" stroke-miterlimit="4.97494" transform="matrix(1,0,0,1,0,0)"
font-family=".SF NS Text" font-size="104" font-weight="400" font-style="normal" 
>
</g>

<g fill="#ffffff" fill-opacity="1" stroke="#000000" stroke-opacity="1" stroke-width="1" stroke-linecap="butt" stroke-linejoin="bevel" transform="matrix(1,0,0,1,0,0)"
font-family=".SF NS Text" font-size="104" font-weight="400" font-style="normal" 
>
</g>

<g fill="none" stroke="#000000" stroke-opacity="1" stroke-width="16" stroke-linecap="butt" stroke-linejoin="bevel" transform="matrix(1,0,0,1,0,0)"
font-family=".SF NS Text" font-size="104" font-weight="400" font-style="normal" 
>
<path vector-effect="none" fill-rule="nonzero" d="M408,657 L417,640 L426,622 L435,605 L444,588 L454,571 L463,554 L472,538 L481,522 L490,506 L499,490 L508,475 L517,460 L527,445 L536,431 L545,417 L554,403 L563,390 L572,377 L581,365 L590,353 L599,341 L609,330 L618,320 L627,309 L636,300 L645,290 L654,282 L663,273 L672,266 L681,259 L691,252 L700,246 L709,240 L718,235 L727,231 L736,227 L745,223 L754,220 L764,218 L773,216 L782,215 L791,215 L800,215 L809,215 L818,217 L827,218 L836,221 L846,223 L855,227 L864,231 L873,235 L882,240 L891,246 L900,252 L909,259 L918,266 L928,274 L937,282 L946,291 L955,300 L964,310 L973,320 L982,331 L991,342 L1001,354 L1010,366 L1019,378 L1028,391 L1037,404 L1046,418 L1055,432 L1064,446 L1073,461 L1083,476 L1092,491 L1101,507 L1110,523 L1119,539 L1128,556 L1137,572 L1146,589 L1155,606 L1165,623 L1174,641 L1183,658 L1192,676 L1201,694 L1210,712 L1219,730 L1228,748 L1238,766 L1247,784 L1256,802 L1265,820 L1274,838 L1283,856 L1292,874 L1301,892 L1310,910 L1320,927 L1329,945 L1338,962 L1347,979 L1356,996 L1365,1013 L1374,1030 L1383,1046 L1392,1062 L1402,1078 L1411,1093 L1420,1109 L1429,1124 L1438,1138 L1447,1152 L1456,1166 L1465,1180 L1475,1193 L1484,1205 L1493,1218 L1502,1229 L1511,1241 L1520,1252 L1529,1262 L1538,1272 L1547,1282 L1557,1291 L1566,1299 L1575,1307 L1584,1315 L1593,1322 L1602,1328 L1611,1334 L1620,1340 L1629,1345 L1639,1349 L1648,1353 L1657,1356 L1666,1358 L1675,1360 L1684,1362 L1693,1363 L1702,1363 L1712,1363 L1721,1362 L1730,1361 L1739,1359 L1748,1356 L1757,1353 L1766,1349 L1775,1345 L1784,1341 L1794,1335 L1803,1329 L1812,1323 L1821,1316 L1830,1309 L1839,1301 L1848,1292 L1857,1283 L1866,1274 L1876,1264 L1885,1253 L1894,1243 L1903,1231 L1912,1220 L1921,1207 L1930,1195 L1939,1182 L1949,1168 L1958,1155 L1967,1140 L1976,1126 L1985,1111 L1994,1096 L2003,1080 L2012,1065 L2021,1049 L2031,1032 L2040,1016 L2049,999 L2058,982 L2067,965 L2076,948 L2085,930 L2094,913 L2103,895 L2113,877 L2122,859 L2131,841 L2140,823 L2149,805 L2158,787 L2167,769 L2176,751 L2186,733 L2195,715 L2204,697 L2213,679 L2222,661"/>
</g>

<g fill="#ffffff" fill-opacity="1" stroke="#000000" stroke-opacity="1" stroke-width="1" stroke-linecap="butt" stroke-linejoin="bevel" transform="matrix(1,0,0,1,0,0)"
font-family=".SF NS Text" font-size="104" font-weight="400" font-style="normal" 
>
</g>

<g fill="#ffffff" fill-opacity="1" stroke="#000000" stroke-opacity="1" stroke-width="1" stroke-linecap="butt" stroke-linejoin="miter" stroke-miterlimit="4.97494" transform="matrix(1,0,0,1,0,0)"
font-family=".SF NS Text" font-size="104" font-weight="400" font-style="normal" 
>
</g>

<g fill="#ffffff" fill-opacity="1" stroke="#ffff00" stroke-opacity="1" stroke-width="1" stroke-linecap="butt" stroke-linejoin="bevel" transform="matrix(1,0,0,1,0,0)"
font-family=".SF NS Text" font-size="104" font-weight="400" font-style="normal" 
>
</g>

<g fill="none" stroke="#ffff00" stroke-opacity="1" stroke-width="16" stroke-linecap="butt" stroke-linejoin="bevel" transform="matrix(1,0,0,1,0,0)"
font-family=".SF NS Text" font-size="104" font-weight="400" font-style="normal" 
>
<path vector-effect="none" fill-rule="nonzero" d="M408,644 L417,636 L426,629 L435,621 L444,614 L454,607 L463,599 L472,593 L481,586 L490,580 L499,573 L508,567 L517,561 L527,556 L536,550 L545,545 L554,540 L563,536 L572,531 L581,527 L590,523 L599,520 L609,517 L618,513 L627,511 L636,508 L645,506 L654,504 L663,502 L672,501 L681,500 L691,499 L700,498 L709,498 L718,498 L727,499 L736,499 L745,500 L754,501 L764,503 L773,505 L782,507 L791,509 L800,512 L809,515 L818,518 L827,521 L836,525 L846,529 L855,533 L864,537 L873,542 L882,547 L891,552 L900,558 L909,563 L918,569 L928,576 L937,582 L946,588 L955,595 L964,602 L973,609 L982,616 L991,624 L1001,632 L1010,639 L1019,647 L1028,655 L1037,664 L1046,672 L1055,680 L1064,689 L1073,697 L1083,706 L1092,715 L1101,724 L1110,733 L1119,742 L1128,751 L1137,760 L1146,769 L1155,778 L1165,788 L1174,797 L1183,806 L1192,815 L1201,824 L1210,833 L1219,842 L1228,851 L1238,860 L1247,869 L1256,878 L1265,886 L1274,895 L1283,903 L1292,912 L1301,920 L1310,928 L1320,936 L1329,944 L1338,952 L1347,959 L1356,966 L1365,974 L1374,981 L1383,987 L1392,994 L1402,1000 L1411,1006 L1420,1012 L1429,1018 L1438,1024 L1447,1029 L1456,1034 L1465,1039 L1475,1043 L1484,1048 L1493,1052 L1502,1055 L1511,1059 L1520,1062 L1529,1065 L1538,1068 L1547,1070 L1557,1072 L1566,1074 L1575,1076 L1584,1077 L1593,1078 L1602,1079 L1611,1079 L1620,1079 L1629,1079 L1639,1079 L1648,1078 L1657,1077 L1666,1075 L1675,1074 L1684,1072 L1693,1070 L1702,1067 L1712,1065 L1721,1062 L1730,1058 L1739,1055 L1748,1051 L1757,1047 L1766,1043 L1775,1038 L1784,1033 L1794,1028 L1803,1023 L1812,1017 L1821,1012 L1830,1006 L1839,999 L1848,993 L1857,986 L1866,980 L1876,973 L1885,965 L1894,958 L1903,951 L1912,943 L1921,935 L1930,927 L1939,919 L1949,911 L1958,902 L1967,894 L1976,885 L1985,877 L1994,868 L2003,859 L2012,850 L2021,841 L2031,832 L2040,823 L2049,814 L2058,805 L2067,795 L2076,786 L2085,777 L2094,768 L2103,759 L2113,750 L2122,741 L2131,732 L2140,723 L2149,714 L2158,705 L2167,696 L2176,688 L2186,679 L2195,671 L2204,662 L2213,654 L2222,646"/>
</g>

<g fill="#ffffff" fill-opacity="1" stroke="#ffff00" stroke-opacity="1" stroke-width="1" stroke-linecap="butt" stroke-linejoin="bevel" transform="matrix(1,0,0,1,0,0)"
font-family=".SF NS Text" font-size="104" font-weight="400" font-style="normal" 
>
</g>

<g fill="#ffffff" fill-opacity="1" stroke="#000000" stroke-opacity="1" stroke-width="1" stroke-linecap="butt" stroke-linejoin="miter" stroke-miterlimit="4.97494" transform="matrix(1,0,0,1,0,0)"
font-family=".SF NS Text" font-size="104" font-weight="400" font-style="normal" 
>
</g>

<g fill="#ffffff" fill-opacity="1" stroke="#000000" stroke-opacity="1" stroke-width="1" stroke-linecap="butt" stroke-linejoin="miter" stroke-miterlimit="4.97494" transform="matrix(1,0,0,1,0,0)"
font-family=".SF NS Text" font-size="104" font-weight="400" font-style="normal" 
>
</g>
</g>
</svg>
